PathFileType	4	(X/Y/Z)	path1_06_0-979.trc
DataRate	CameraRate	NumFrames	NumMarkers	Units	OrigDataRate	OrigDataStartFrame	OrigNumFrames
30	30	5	22	m	30	734	979
Frame#	Time	Hip			RHip			RKnee			RAnkle			RBigToe			RSmallToe			RHeel			LHip			LKnee			LAnkle			LBigToe			LSmallToe			LHeel			Neck			Head			Nose			RShoulder			RElbow			RWrist			LShoulder			LElbow			LWrist		
		X1	Y1	Z1	X2	Y2	Z2	X3	Y3	Z3	X4	Y4	Z4	X5	Y5	Z5	X6	Y6	Z6	X7	Y7	Z7	X8	Y8	Z8	X9	Y9	Z9	X10	Y10	Z10	X11	Y11	Z11	X12	Y12	Z12	X13	Y13	Z13	X14	Y14	Z14	X15	Y15	Z15	X16	Y16	Z16	X17	Y17	Z17	X18	Y18	Z18	X19	Y19	Z19	X20	Y20	Z20	X21	Y21	Z21	X22	Y22	Z22
735	24.5	-0.8372781771011586	0.8346253096573562	0.30908650523907094	-0.843348884430923	0.8176868793873431	0.39675583743438986	-0.8627787723313797	0.48155255617276305	0.36606612569277475	-0.9357695558977278	0.11333678638169879	0.3350577137124321	-0.7593920322392047	0.03124262820804857	0.3397674871420351	-0.8062847778113493	0.026995592602980015	0.39113475240038137	-0.9867032158348884	0.04058267543896489	0.3306925282011472	-0.8162562446157829	0.8200135049985047	0.22369261646157074	-0.6631766069154343	0.5208418292419847	0.2352178679626639	-0.777747371872165	0.16432228640034358	0.20956965924329132	-0.6061459693392354	0.0619833780742134	0.21423930044301684	-0.663055137440039	0.055153382715842525	0.16502166949397093	-0.8359788949803486	0.09952054001376126	0.20738504983706457	-0.8148033444985368	1.4434867228779735	0.30205995817458875	-0.7298761589268381	1.7074107260865214	0.313258409425944	-0.6466483498218095	1.5351441445970475	0.29371744016583945	-0.8166964637991667	1.3348215281122167	0.46638014891922847	-0.8111408822788279	1.060169325749479	0.5282887512161935	-0.7157586186186679	0.8751525613955611	0.5646043688889167	-0.87063684216813	1.3515241452558544	0.12563190178525357	-0.8849489769581845	1.0679845728058344	0.12011985980601253	-0.8280439218691684	0.8558152773284672	0.09779634431923885
736	24.53333333333333	-0.8061115332848573	0.8318305797015979	0.30989543355307714	-0.8160246550333881	0.8142289541397052	0.3962261177062986	-0.8507087952580757	0.4778159369144139	0.3664559878454092	-0.9340220083555572	0.11245210956693819	0.3350096986978529	-0.7612668421576229	0.030112291192846894	0.3384886003143323	-0.8062011860801697	0.027391307363250815	0.38805757815164915	-0.9867568986948639	0.040876298372820793	0.33062249890805623	-0.7844766894102582	0.816032201004805	0.2236214507001136	-0.630269667945354	0.5214302171765369	0.23822626310323458	-0.6875857931315909	0.14919324972638154	0.21036086429585227	-0.49636939346414827	0.06919658759484212	0.22457911841088804	-0.5517501002143961	0.05723111529637787	0.17079511263397829	-0.7378301154862189	0.07453583419517772	0.20979676615392084	-0.7803838320721652	1.437189054039535	0.30268782127675836	-0.6979167544578997	1.7036554974673304	0.3158487947148718	-0.6155611825460464	1.5310051670269766	0.29395443426665224	-0.7816324966063557	1.3322953174916525	0.46707867611570136	-0.7704034725335647	1.0607556615785674	0.5287259026903016	-0.6713505549637417	0.8769996531748624	0.5663946414969498	-0.8388920264834085	1.347501537972866	0.13463527261808425	-0.8563357942419232	1.0670735556798068	0.12029711385160854	-0.8020320129343382	0.8534001248335814	0.09783154296243854
737	24.566666666666663	-0.7738292344452294	0.8270313406317837	0.31018411742168855	-0.7867522826003785	0.8093033304916228	0.3951620007292468	-0.8348759015099331	0.4723382419076714	0.36628700946497234	-0.9316613792674522	0.11089494968703967	0.33469732167755506	-0.7616736380238435	0.02927644682524176	0.337242803084073	-0.8035816712285283	0.026841420499729172	0.3843111322427581	-0.9859262787488142	0.04086550645774828	0.3304579593554577	-0.7525138649939561	0.8100310478110059	0.2235503341610367	-0.5999166527669592	0.5174818807513955	0.23990902646328405	-0.6027136030033836	0.13772518576319304	0.21332422078533783	-0.40244396069842475	0.07956093740386964	0.23475278905125396	-0.45178205870465415	0.06381047589096345	0.1780645357352988	-0.6430778986864778	0.05690253067215485	0.21484734139266748	-0.7453204957126707	1.4300930467889383	0.30218801043352395	-0.6657025386066656	1.6985648709225445	0.31781838359698666	-0.5839259255064828	1.526280169269644	0.29315369724474405	-0.7470484966967839	1.3295602608506978	0.4664414397654656	-0.73087250928413	1.0601831782268616	0.5282956356002214	-0.6293545103445207	0.8770359448541212	0.5662781290905762	-0.806055082909413	1.3425293409976944	0.14249088836931464	-0.8257378317548362	1.063759228240173	0.119401810670039	-0.7736745074391816	0.8497472552850269	0.09702714767601363
738	24.6	-0.7400825004705212	0.8209357262771804	0.30984537457186745	-0.7552729046637556	0.8035495597493427	0.3937592896838498	-0.8147144096907429	0.4656649508417082	0.36531165129770377	-0.928463221410109	0.10951893742705043	0.33431475049556986	-0.7608941798478476	0.02861169451822377	0.33684350421938697	-0.7998088736631479	0.02571735692954541	0.38054443849045233	-0.9842895312973391	0.041343492377886835	0.3303470645905522	-0.7198828007444583	0.8028209822892002	0.22328049785107498	-0.5697048860092933	0.5097696947112678	0.24036923091907988	-0.5270489185388855	0.12900796796638161	0.21882754217341127	-0.32721711740479753	0.08985780241262736	0.24415133578852877	-0.3678375884892686	0.07136776459359363	0.18662652919103007	-0.5578502910718006	0.04570098355971305	0.22291549059638305	-0.7096964858639737	1.4230406525882078	0.30050781904264307	-0.6331538145419177	1.692860161785203	0.31877130474968796	-0.5517359773709938	1.5216317668500037	0.29136105409458324	-0.7129491439392721	1.3268897043248695	0.46448304107941685	-0.6929039671299139	1.0586354011893682	0.5269998916396077	-0.5902262593779307	0.8754036577195988	0.5645247771588189	-0.7722444389798057	1.3370678650100656	0.14788871749997878	-0.7922606998301428	1.058229521652913	0.11717924876383214	-0.7432194799583574	0.8449763893328864	0.09550764654899556
739	24.633333333333333	-0.7045578569660009	0.8147338537440318	0.30875952181012023	-0.72144420433939	0.7978851051075561	0.392031748391307	-0.789562094679647	0.4589803091899295	0.3633374682990304	-0.9237508054816171	0.10953533525401317	0.3339788706217859	-0.7599853525094113	0.028004734506000318	0.3373792667130713	-0.796619369979338	0.02487774103476265	0.3778342752512717	-0.9817102605206818	0.043301401266747724	0.33010890436959445	-0.6859114929060891	0.795617869178716	0.2225699815424506	-0.5379780689053086	0.4997768590590381	0.24007967454681656	-0.46430038775863475	0.12168404791387413	0.2260145279250357	-0.27137885296316694	0.09590492375814404	0.25189302666482	-0.3024770050599031	0.07550045230954289	0.19569550545965003	-0.48786275333425017	0.03916945097546515	0.23304960547852616	-0.6737100755741547	1.4170556993882941	0.29772400592113546	-0.6002853060479273	1.687345530176712	0.31844787167083033	-0.5190775838051681	1.5175768010143122	0.28869151845514207	-0.6790913954885817	1.3244782905580255	0.4615018866339795	-0.6566039241142125	1.056428667680722	0.5247881769538035	-0.5541054704072076	0.8724105407166126	0.5612857594487932	-0.7374618860984847	1.331756393561937	0.14962729102602237	-0.7553637040226459	1.0512168198189187	0.11332595048451202	-0.7112605354825714	0.8394524513152046	0.09341555636036988
